Coordinates
version=1
nRows=22
nColumns=24
inDegrees=yes

Units are S.I. units (second, meters, Newtons, ...)
Angles are in degrees.

endheader
time	pelvis_tilt	pelvis_list	pelvis_rotation	pelvis_tx	pelvis_ty	pelvis_tz	hip_flexion_r	hip_adduction_r	hip_rotation_r	knee_angle_r	ankle_angle_r	subtalar_angle_r	mtp_angle_r	hip_flexion_l	hip_adduction_l	hip_rotation_l	knee_angle_l	ankle_angle_l	subtalar_angle_l	mtp_angle_l	lumbar_extension	lumbar_bending	lumbar_rotation
      1.65000000	     -9.04019503	      3.70808325	    355.04608754	     -0.78033634	      1.36626168	     -1.04370844	      3.17970569	      0.29114339	      6.44616345	    -18.73069200	     12.14561065	     -5.75411989	      5.95467673	     26.66673080	      3.54885449	     -6.17284181	      4.36226191	     -8.49695260	      5.79839813	     32.49059464	     -6.35504802	      0.50620843	     17.73896780
      1.65500000	     -8.95468799	      3.82714752	    355.03954587	     -0.77460619	      1.36555570	     -1.04392496	      2.83957156	      0.10157851	      6.33306824	    -18.94047406	     12.33879790	     -5.49373548	      6.07939644	     26.74680658	      3.70868266	     -5.94150396	      3.55213415	     -8.64515008	      4.77826462	     32.27394020	     -6.40488589	      0.34509534	     17.61541467
      1.66000000	     -8.93349848	      3.93172968	    355.05695189	     -0.76884389	      1.36481947	     -1.04415468	      2.57284887	     -0.05961217	      6.22569834	    -19.16711211	     12.44986897	     -5.36466796	      6.19513989	     26.90173424	      3.85872030	     -5.65149424	      2.71036125	     -8.86662068	      3.70947568	     32.07790233	     -6.37086181	      0.18697036	     17.52180765
      1.66500000	     -8.92899402	      4.02600828	    355.09513958	     -0.76305102	      1.36409129	     -1.04443573	      2.32946808	     -0.21211927	      6.09148434	    -19.40663329	     12.54399867	     -5.22901913	      6.36323006	     27.07171981	      4.01282858	     -5.33496917	      1.86480205	     -9.16144182	      2.62073623	     31.90923677	     -6.31681038	      0.05136752	     17.40335129
      1.67000000	     -8.90369659	      4.13290502	    355.12541033	     -0.75724676	      1.36343209	     -1.04469590	      2.08026346	     -0.37827034	      5.96946672	    -19.67784487	     12.59668250	     -5.08125118	      6.54364660	     27.20212213	      4.18249471	     -5.04179139	      1.04969498	     -9.52544608	      1.56620099	     31.75402110	     -6.29012927	     -0.10587647	     17.28074230
      1.67500000	     -8.90278793	      4.23281797	    355.17889938	     -0.75144023	      1.36279072	     -1.04499467	      1.87724528	     -0.53597398	      5.82877640	    -19.99195105	     12.60037272	     -4.93639502	      6.77172563	     27.35134841	      4.35643365	     -4.68670277	      0.25354998	     -9.95132335	      0.49382314	     31.64310367	     -6.23805013	     -0.25573257	     17.13792736
      1.68000000	     -8.88392721	      4.34756630	    355.22070080	     -0.74560372	      1.36223907	     -1.04528881	      1.67666322	     -0.71135924	      5.69116756	    -20.34255264	     12.56817965	     -4.77842071	      7.02767534	     27.45813755	      4.54874290	     -4.41391584	     -0.49371918	    -10.44814664	     -0.49796313	     31.52233278	     -6.20619333	     -0.41408544	     16.98335778
      1.68500000	     -8.90540394	      4.45190048	    355.29989129	     -0.73977336	      1.36169718	     -1.04563009	      1.54608336	     -0.87078713	      5.53935728	    -20.74694634	     12.48921576	     -4.64220314	      7.35068678	     27.60692105	      4.74422345	     -4.05346517	     -1.23380813	    -10.94452101	     -1.47004000	     31.48356466	     -6.13269228	     -0.57062676	     16.82038084
      1.69000000	     -8.90105478	      4.57416737	    355.35779175	     -0.73393491	      1.36126663	     -1.04594902	      1.42422627	     -1.05223669	      5.39811685	    -21.21302071	     12.34844324	     -4.46851992	      7.69553140	     27.70400643	      4.95409536	     -3.77337841	     -1.92565293	    -11.47951812	     -2.35126590	     31.42394169	     -6.08880930	     -0.73962343	     16.64486149
      1.69500000	     -8.91560462	      4.68251218	    355.44771610	     -0.72811203	      1.36087857	     -1.04633720	      1.35650090	     -1.21983253	      5.23109629	    -21.74172010	     12.15510034	     -4.31459517	      8.12189194	     27.82225106	      5.16615303	     -3.43326493	     -2.62107027	    -11.99470406	     -3.20010923	     31.41154445	     -6.03518779	     -0.89115299	     16.46230334
      1.70000000	     -8.94997030	      4.79850197	    355.53759155	     -0.72228202	      1.36054957	     -1.04672775	      1.35543902	     -1.39299192	      5.08274535	    -22.34994449	     11.88428795	     -4.15588787	      8.60884021	     27.94936565	      5.38372177	     -3.08960988	     -3.29852648	    -12.48538924	     -3.97158841	     31.39949270	     -5.95975937	     -1.05177725	     16.27252704
      1.70500000	     -8.95834426	      4.89776368	    355.64395131	     -0.71648904	      1.36031888	     -1.04717264	      1.36752592	     -1.55445861	      4.90435628	    -23.02472696	     11.53366621	     -4.02100196	      9.22677575	     28.05559228	      5.60042970	     -2.74019813	     -3.99852697	    -12.93370471	     -4.72484464	     31.37866173	     -5.92280763	     -1.19211760	     16.08852784
      1.71000000	     -8.95374066	      5.00787289	    355.74845488	     -0.71068795	      1.36018731	     -1.04762967	      1.41447249	     -1.73119805	      4.73765616	    -23.77759941	     11.09326402	     -3.88608662	      9.94734164	     28.13968272	      5.83018243	     -2.38348720	     -4.69689073	    -13.32448159	     -5.41874075	     31.30966544	     -5.90724579	     -1.34144614	     15.89960549
      1.71500000	     -8.97686408	      5.11474394	    355.85992532	     -0.70486880	      1.36010423	     -1.04808719	      1.54059170	     -1.89965699	      4.58766891	    -24.60564335	     10.47693517	     -3.89767927	     10.95285871	     28.25643870	      6.05586003	     -2.02218807	     -5.41752804	    -13.61272458	     -6.00842007	     31.21524612	     -5.84998305	     -1.49589321	     15.73433307
      1.72000000	     -8.97263965	      5.23786782	    355.97553822	     -0.69905074	      1.36009976	     -1.04861394	      1.69652675	     -2.10781796	      4.38538146	    -25.54465407	      9.99359627	     -3.55578213	     11.58735651	     28.35085241	      6.31283548	     -1.64595495	     -6.16873534	    -13.82570918	     -6.65186829	     30.96694448	     -5.83492702	     -1.65357611	     15.52352576
      1.72500000	     -8.98697141	      5.33999057	    356.08826402	     -0.69326103	      1.36016967	     -1.04915928	      1.93217996	     -2.28679313	      4.22008033	    -26.55427879	      9.17663182	     -3.56928007	     12.79366169	     28.46822778	      6.54922252	     -1.24062673	     -6.93942290	    -13.99002947	     -7.25419892	     30.57344967	     -5.80314876	     -1.76838669	     15.33812631
      1.73000000	     -8.95678450	      5.43173452	    356.20538356	     -0.68752717	      1.36030645	     -1.04975329	      2.17849494	     -2.46829629	      4.04266828	    -27.65872646	      8.40191182	     -3.43558966	     13.91079468	     28.55730390	      6.79007071	     -0.80438182	     -7.76431037	    -13.99630410	     -7.83329283	     30.12240743	     -5.83636226	     -1.88232548	     15.17705943
      1.73500000	     -8.94704126	      5.55025831	    356.33848204	     -0.68168853	      1.36049248	     -1.05038548	      2.49146688	     -2.69546110	      3.81904922	    -28.82881871	      7.52953830	     -3.19594347	     14.99964025	     28.65654811	      7.07142302	     -0.35401863	     -8.58600343	    -13.97444195	     -8.41033600	     29.57618550	     -5.81733540	     -2.02177712	     15.00620819
      1.74000000	     -8.88560746	      5.63946974	    356.44168452	     -0.67595630	      1.36076884	     -1.05100849	      2.81514494	     -2.89101931	      3.65284813	    -30.07126010	      6.47814547	     -3.12163336	     16.41036605	     28.71205823	      7.31895541	      0.07069069	     -9.44497500	    -13.77876560	     -8.84283249	     28.90161532	     -5.88180313	     -2.12335936	     14.88378422
      1.74500000	     -8.83826732	      5.75962082	    356.55084510	     -0.67019248	      1.36103693	     -1.05166157	      3.21291918	     -3.13399967	      3.46436711	    -31.40213012	      5.43696143	     -2.93687604	     17.67550714	     28.77692475	      7.61039388	      0.51636441	    -10.30034677	    -13.56278619	     -9.37242118	     28.18187838	     -5.92010715	     -2.25099171	     14.72755156
      1.75000000	     -8.78759725	      5.89325129	    356.67629426	     -0.66437873	      1.36133643	     -1.05236391	      3.64843227	     -3.41103215	      3.24304813	    -32.77825861	      4.31809349	     -2.65369509	     18.92293043	     28.81800691	      7.93345331	      0.98425950	    -11.12967395	    -13.32406442	     -9.87661025	     27.41831419	     -5.93620168	     -2.40055655	     14.60583716
      1.75500000	     -8.69498677	      5.99706560	    356.75257322	     -0.65869493	      1.36169503	     -1.05300222	      4.10334584	     -3.64554146	      3.11733412	    -34.19913500	      3.03373256	     -2.55526679	     20.42190484	     28.81614183	      8.20682083	      1.36328712	    -11.97105915	    -12.92007269	    -10.19756634	     26.55155279	     -6.03275667	     -2.50195465	     14.49410571
